<svg xmlns="http://www.w3.org/2000/svg" width="14.35" height="14.389" viewBox="0 0 14.35 14.389">
  <g id="Group_94" data-name="Group 94" transform="translate(0.75 0.827)">
    <g id="Group_78" data-name="Group 78">
      <g id="Group_75" data-name="Group 75">
        <path id="Path_60" data-name="Path 60" d="M7.885.75A6.424,6.424,0,1,1,6.208.784" transform="translate(-0.75 -0.75)" fill="none" stroke="#004521" stroke-linecap="round" stroke-linejoin="round" stroke-width="1.5"/>
      </g>
      <g id="Group_76" data-name="Group 76" transform="translate(3.428 3.129)">
        <path id="Path_56" data-name="Path 56" d="M.625,7.733C.208,7.733,0,7.411,0,6.981V.752A.711.711,0,0,1,.625,0,.711.711,0,0,1,1.25.752V6.981A.6.6,0,0,1,.625,7.733Z" transform="translate(0.898 6.366) rotate(-135)" fill="#004521"/>
        <path id="Path_66" data-name="Path 66" d="M.625,0C.208,0,0,.322,0,.752V6.981a.711.711,0,0,0,.625.752.711.711,0,0,0,.625-.752V.752A.6.6,0,0,0,.625,0Z" transform="translate(0 0.898) rotate(-45)" fill="#004521"/>
      </g>
    </g>
  </g>
</svg>
